# xmcd
#
# Track frame offsets: 
#        187
#        11475
#        24300
#        38187
#        50325
#        60262
#        72337
#        87187
#        101737
#        115875
#        131637
#        145312
#
# Disc length: 2118 seconds
#
# Revision: 2
# Processed by: cddbd v1.5.1PL0 Copyright (c) Steve Scherf et al.
# Submitted via: ExactAudioCopy v0.90b4
#
DISCID=9c08440c
DTITLE=Howlin' Wolf - Cadillac Daddy - Memphis Recordings 1952
DYEAR=1989
DGENRE=Blues
TTITLE0=Cadillac Dady (Mr. Highway Man)
TTITLE1=Bluebird Blues
TTITLE2=My Last Affair (Take 1)
TTITLE3=Oh Red! (Take 2)
TTITLE4=Come Back Home
TTITLE5=Dorothy Mae
TTITLE6=Decoration Day Blues
TTITLE7=Color And Kind
TTITLE8=Drinkin' C.V. Wine
TTITLE9=I Got A Woman (Sweet Woman)
TTITLE10=Everybody's In The Mood
TTITLE11=My Baby Walked Off
EXTD=
EXTT0=
EXTT1=
EXTT2=
EXTT3=
EXTT4=
EXTT5=
EXTT6=
EXTT7=
EXTT8=
EXTT9=
EXTT10=
EXTT11=
PLAYORDER=
